<?xml version="1.0" encoding="UTF-8"?>
<svg width="234px" height="270px" viewBox="0 0 234 270" version="1.1" xmlns="http://www.w3.org/2000/svg" xmlns:xlink="http://www.w3.org/1999/xlink">
    <!-- Generator: Sketch 47.1 (45422) - http://www.bohemiancoding.com/sketch -->
    <title>ChainLink</title>
    <desc>Created with Sketch.</desc>
    <defs></defs>
    <g stroke="none" stroke-width="1" fill="none" fill-rule="evenodd">
        <g transform="translate(-5803.000000, -5438.000000)" id="ChainLink" fill="#F6416C">
            <g transform="translate(5803.000000, 5438.000000)">
                <polygon id="Line" fill-rule="nonzero" points="4.39813354 72.3992163 117.576594 135.72526 119.041455 133.10721 5.86299449 69.781167"></polygon>
                <polygon id="Line" fill-rule="nonzero" points="228.566895 68.2939891 116.625606 133.311627 118.13235 135.905798 230.073639 70.88816"></polygon>
                <polygon id="Line" fill-rule="nonzero" points="116.511332 132.442726 115.685874 263.007223 118.685814 263.026189 119.511272 132.461692"></polygon>
                <path d="M117,7 L6.14874832,71 L6.14874832,199 L117,263 L227.851252,199 L227.851252,71 L117,7 Z M117,0.0717967697 L233.851252,67.5358984 L233.851252,202.464102 L117,269.928203 L0.148748316,202.464102 L0.148748316,67.5358984 L117,0.0717967697 Z" id="Polygon-2" fill-rule="nonzero"></path>
                <path d="M94.6205376,49.9580632 C92.1370719,49.2243137 90.1008923,48.3617031 88.5130856,47.372116 C85.7420728,45.6456416 84.4018178,43.7673678 84.4893685,41.7406832 C84.5793689,39.7241621 86.0653745,37.9277887 88.9372753,36.3460221 C91.8358612,34.7465041 95.0025494,33.9599066 98.4399344,33.9824773 C101.868277,34.0041633 104.912226,34.8325398 107.583328,36.4722281 C109.099844,37.4035623 110.455312,38.5569372 111.651504,39.9339271 L109.113878,41.3909901 C108.189181,39.8100928 106.959091,38.5484574 105.421552,37.6034062 C103.645351,36.5119805 101.497472,36.0025026 98.9718717,36.0728013 C96.4411272,36.1424258 94.0979411,36.7757119 91.9408244,37.9750201 C89.7577435,39.1871273 88.6182714,40.5824535 88.528561,42.1641333 C88.4403764,43.7519169 89.4269343,45.1881262 91.4898872,46.4703868 C92.7404145,47.2477632 94.5599255,47.968275 96.947693,48.6305208 L94.6205376,49.9580632 Z M98.1236636,52.8224242 L120.373823,39.9358407 L123.027633,41.5578844 L113.342045,47.2189717 C116.704348,46.7312985 119.444161,47.1359268 121.575129,48.433145 C124.399138,50.1456968 124.122525,52.0134602 120.718368,54.0470525 L110.241928,60.2934114 L107.498998,58.6141525 L117.242352,52.8459601 C118.4277,52.1429389 119.087202,51.5341209 119.222949,51.0188745 C119.358733,50.5041982 119.001325,49.9883327 118.151458,49.4708038 C116.801059,48.647181 114.394948,48.3673276 110.923677,48.629866 L100.83207,54.5021774 L98.1236636,52.8224242 Z M126.880422,68.0294239 C123.771399,67.8953569 121.371806,67.3258855 119.686908,66.3233868 C118.280322,65.4826838 117.525362,64.5459307 117.420406,63.5153381 C117.316707,62.4864603 117.877217,61.6036243 119.09892,60.8665774 C120.682911,59.9106058 122.653716,59.5627194 125.014409,59.8190291 C127.374286,60.0727063 129.70772,60.8810512 132.022572,62.2432072 L133.750975,63.2537683 L135.034489,62.4608288 C136.089793,61.8088317 136.600197,61.204857 136.567907,60.6480642 C136.535986,60.0917203 135.965946,59.4895377 134.859186,58.8404608 C133.259252,57.8983017 131.16709,57.1898034 128.579568,56.7137713 L130.911531,55.2995672 C133.549827,56.0405936 135.727913,56.915603 137.447642,57.9259441 C139.388859,59.0599524 140.392407,60.0896937 140.453811,61.018377 C140.516286,61.9482427 139.631769,62.9832704 137.793437,64.1263286 L131.493473,68.0430326 C130.581728,68.6097261 130.060139,69.0545602 129.929965,69.3769425 C129.799741,69.6995499 130.012479,70.0218806 130.568673,70.3435309 C130.751004,70.4488272 131.09526,70.5914368 131.601596,70.7712012 L130.208706,71.9535882 C128.956973,71.5909253 128.086733,71.2671098 127.597427,70.983047 C126.19919,70.1684944 125.961736,69.1826251 126.880422,68.0294239 Z M128.231121,66.6628582 L132.047786,64.3058642 L131.210002,63.8161676 C127.392346,61.5680728 124.473828,61.060087 122.428722,62.3032917 C121.68896,62.7528518 121.337936,63.2606175 121.376704,63.8265626 C121.415832,64.3930199 121.841088,64.9179709 122.653079,65.4007043 C123.87326,66.1238981 125.73361,66.5451486 128.231121,66.6628582 Z M139.604973,77.4757196 L152.481554,69.2530337 L146.75991,66.0791391 L148.764847,64.8152813 L157.350337,69.5423513 L142.515578,79.0717704 L139.604973,77.4757196 Z M157.403677,65.684777 L160.677893,63.5999676 L164.257929,65.543586 L160.996238,67.6349522 L157.403677,65.684777 Z M152.828426,84.527136 L167.53778,74.883352 L170.500844,76.3764265 L167.790633,78.1592081 C171.183881,77.5108025 174.060252,77.7681463 176.43998,78.9200941 C179.604172,80.4210692 179.590458,82.2365471 176.354856,84.4044661 L166.332371,91.1443215 L163.256847,89.693659 L172.582567,83.4546744 C173.711426,82.7013923 174.308334,82.0716476 174.376247,81.5634234 C174.444219,81.0555502 174.002537,80.5738415 173.052817,80.1164556 C171.545999,79.3843596 169.02839,79.2363375 165.488538,79.6750769 L155.827478,86.0508163 L152.828426,84.527136 Z M50.8611825,59.8886163 L68.1072316,50.7085738 L70.5353115,52.2558727 L55.3036377,60.451374 L63.9119164,66.1461066 L61.9167691,67.2384625 L50.8611825,59.8886163 Z M71.0928142,73.3192911 L83.6423419,66.158206 L78.6763553,62.9741763 L80.6447339,61.8597433 L88.0939821,66.6077023 L73.5927801,74.9645317 L71.0928142,73.3192911 Z M88.545467,62.9503755 L91.7986433,61.0685345 L94.907078,63.018004 L91.6594948,64.9153585 L88.545467,62.9503755 Z M82.4002227,80.696623 L96.8581639,72.1127813 L99.3928698,73.6822591 L96.7009195,75.3024042 C99.8786615,74.8169872 102.475539,75.1898886 104.501753,76.4234417 C107.190028,78.0459604 106.933917,79.8476936 103.709684,81.8397995 L93.8226808,87.9202777 L91.2315457,86.3070063 L100.411696,80.7094993 C101.531635,80.0238032 102.154237,79.432209 102.280957,78.9346269 C102.407707,78.4375666 102.067022,77.9430117 101.259838,77.450067 C99.9779229,76.6643152 97.7006998,76.4063698 94.4230866,76.6706011 L84.9473831,82.33098 L82.4002227,80.696623 Z M99.4727192,91.3779512 L120.259473,78.3297679 L122.875624,79.8253751 L109.663591,88.1979614 L122.609654,87.3602806 L125.507277,88.9575757 L113.274184,89.8242152 L112.685829,99.0898738 L109.040051,97.0192794 L109.663591,88.1979614 L102.110119,92.961352 L99.4727192,91.3779512 Z" id="Chain-Link"></path>
                <polygon id="Path-40" fill-rule="nonzero" points="22.6045242 104.381313 21.6605614 102.618096 17.204311 105.003812 21.2926871 111.329503 22.9723985 110.243884 20.0628089 105.742056"></polygon>
                <polygon id="Path-40" fill-rule="nonzero" transform="translate(39.150930, 116.142755) scale(-1, 1) translate(-39.150930, -116.142755) " points="42.0553215 112.810763 40.3411018 111.780496 36.2465377 118.593275 40.8119653 120.505014 41.584458 118.660223 39.1519199 117.641615"></polygon>
                <polygon id="Path-41" fill-rule="nonzero" points="25.8425909 110.583308 33.3707329 115.2718 34.4280381 113.574124 26.8998961 108.885631"></polygon>
                <polygon id="Path-40" fill-rule="nonzero" points="21.9464265 185.985426 21.0024637 184.22221 16.5462133 186.607925 20.6345894 192.933616 22.3143009 191.847997 19.4047112 187.346169"></polygon>
                <polygon id="Path-44" fill-rule="nonzero" points="23.9720448 195.943049 28.4910903 189.368545 26.8428981 188.235645 22.3238525 194.810149"></polygon>
                <polygon id="Path-40" fill-rule="nonzero" transform="translate(31.253757, 194.456380) scale(-1, 1) translate(-31.253757, -194.456380) " points="34.1581493 191.124388 32.4439295 190.094121 28.3493654 196.9069 32.9147931 198.818639 33.6872858 196.973847 31.2547477 195.95524"></polygon>
                <polygon id="Path-43" fill-rule="nonzero" points="17.8394843 118.336996 71.3502583 149.122445 72.8462836 146.522078 19.3355095 115.736629"></polygon>
                <polygon id="Path-43" fill-rule="nonzero" points="17.8501826 131.505046 99.8102435 177.766434 101.284872 175.153874 19.3248113 128.892486"></polygon>
                <polygon id="Path-43" fill-rule="nonzero" points="17.8501826 143.350805 99.8102435 189.612193 101.284872 186.999633 19.3248113 140.738245"></polygon>
                <polygon id="Path-43" fill-rule="nonzero" points="17.8462717 153.878152 51.7652015 173.157535 53.2476519 170.549406 19.3287221 151.270023"></polygon>
                <polygon id="Path-43" fill-rule="nonzero" points="17.8461582 163.749553 85.3280701 202.113769 86.8107474 199.505768 19.3288356 161.141553"></polygon>
                <polygon id="Path-43" fill-rule="nonzero" points="17.8662795 173.632254 38.6232556 185.014465 40.0656904 182.383993 19.3087143 171.001782"></polygon>
                <g id="Lock" transform="translate(150.233933, 134.012853)">
                    <path d="M41.5940913,15.2218578 L44.4452341,13.3402271 C46.4603935,11.98617 48.125957,13.1532418 48.1470118,15.9523672 L48.4142633,51.5320054 C48.4353102,54.3379392 46.7961113,57.9063342 44.7707055,59.4315244 L3.73618758,83.569288 C1.68193441,84.4488369 0,82.7962759 0,79.9250469 L1.46785408e-14,43.4657669 C1.46700635e-14,40.5936286 1.66594682,37.4774693 3.70188503,36.5233213 L6.57830933,35.1428621 C6.572579,1.29794321 41.3698395,-13.4313448 41.5940913,15.2218578 Z M20.8311534,48.7347742 C20.8378766,50.5721485 21.443995,51.8725222 22.3804791,52.3936931 L22.4058472,58.8980733 C22.4130644,60.7489011 23.4781069,61.643848 24.7842146,60.8865826 C26.0898017,60.1179485 27.1408903,57.9894206 27.1323581,56.1428397 L27.1029902,49.7881964 C28.1002504,48.155032 28.7449528,46.0702438 28.7356515,44.159449 C28.7203433,41.015031 26.9414138,39.5152587 24.7611565,40.7853961 C22.5796347,42.029348 20.8195999,45.5776535 20.8311534,48.7347742 Z M35.4271613,19.1559116 C35.2366189,-6.78066483 12.7655803,11.2212535 12.7871004,32.0328704 L35.4271613,19.1559116 Z" id="Combined-Shape"></path>
                </g>
            </g>
        </g>
    </g>
</svg>